<svg width="198" height="198" viewBox="0 0 198 198" fill="none" xmlns="http://www.w3.org/2000/svg">
<rect width="198" height="198" rx="99" fill="white"/>
<g style="mix-blend-mode:multiply">
<path style="mix-blend-mode:multiply" d="M99 198C153.676 198 198 153.676 198 99C198 44.3238 153.676 0 99 0C44.3238 0 0 44.3238 0 99C0 153.676 44.3238 198 99 198Z" fill="url(#paint0_linear_2192_23728)"/>
</g>
<g style="mix-blend-mode:multiply">
<path style="mix-blend-mode:multiply" d="M98.9998 178.2C142.741 178.2 178.2 142.741 178.2 98.9999C178.2 55.2589 142.741 19.7998 98.9998 19.7998C55.2589 19.7998 19.7998 55.2589 19.7998 98.9999C19.7998 142.741 55.2589 178.2 98.9998 178.2Z" fill="url(#paint1_radial_2192_23728)"/>
</g>
<path fill-rule="evenodd" clip-rule="evenodd" d="M85.521 143.355H65.9531L65.9288 108.549H41.25V95.5381H65.9198L65.9122 84.8046H41.25V71.7932H65.9032L65.8896 52.25H106.232C115.255 52.25 122.751 55.1724 128.66 60.9539C131.946 64.1701 134.309 67.7796 135.759 71.7932H155.1V84.8046H137.389C137.179 87.4833 136.641 89.9974 135.775 92.4024C135.373 93.5203 134.946 94.5674 134.497 95.5381H155.098V108.549H121.862L121.289 108.858L140.794 143.355H119.956L102.421 111.462H85.521V143.355ZM114.491 90.56C116.843 88.2728 117.986 85.4774 117.986 82.1737C117.986 78.6158 116.843 75.6934 114.491 73.3428C112.141 71.0555 109.155 69.8485 105.597 69.8485H85.4575V93.9272H105.597C109.155 93.9272 112.141 92.8471 114.491 90.56Z" fill="white"/>
<defs>
<linearGradient id="paint0_linear_2192_23728" x1="34.375" y1="184.25" x2="206.25" y2="72.875" gradientUnits="userSpaceOnUse">
<stop stop-color="#1ACBFC"/>
<stop offset="1" stop-color="#FF009B"/>
</linearGradient>
<radialGradient id="paint1_radial_2192_23728" cx="0" cy="0" r="1" gradientUnits="userSpaceOnUse" gradientTransform="translate(39.9666 143.917) rotate(-28.8108) scale(146.463)">
<stop stop-color="#1D15EC"/>
<stop offset="1" stop-color="#9002AE"/>
</radialGradient>
</defs>
</svg>
