<svg width="99" height="33" viewBox="0 0 99 33" fill="none" xmlns="http://www.w3.org/2000/svg">
<path d="M39.7998 7.85909H43.5919V12.6649H43.667C43.9674 12.2644 44.3678 11.9453 44.8684 11.7075C45.369 11.4697 45.9573 11.3508 46.6331 11.3508C47.1087 11.3508 47.5467 11.4134 47.9472 11.5385C48.3477 11.6637 48.6918 11.8702 48.9797 12.158C49.2675 12.4459 49.4928 12.8401 49.6555 13.3407C49.8182 13.8288 49.8995 14.4358 49.8995 15.1617V21H47.4591V15.6685C47.4591 14.9051 47.2964 14.3545 46.971 14.0165C46.6456 13.6786 46.2201 13.5097 45.6944 13.5097C45.2314 13.5097 44.8059 13.6536 44.4179 13.9415C44.0299 14.2168 43.7546 14.5735 43.5919 15.0115V21H41.1514V9.92409H39.7998V7.85909ZM53.1211 12.2519C53.6217 12.0266 54.1974 11.8327 54.8482 11.67C55.5115 11.5073 56.2937 11.4259 57.1948 11.4259C57.8456 11.4259 58.3962 11.5073 58.8468 11.67C59.3099 11.8201 59.679 12.0392 59.9544 12.327C60.2422 12.6148 60.4487 12.959 60.5739 13.3595C60.699 13.76 60.7616 14.2105 60.7616 14.7111C60.7616 15.3494 60.7366 15.8938 60.6865 16.3444C60.649 16.7949 60.6302 17.1954 60.6302 17.5458C60.6302 17.8086 60.6427 18.1027 60.6677 18.4281C60.6928 18.6033 60.7115 18.7723 60.7241 18.935H61.9443V21H58.828L58.584 19.7235H58.4901C58.2398 20.1114 57.8831 20.4493 57.4201 20.7372C56.957 21.0125 56.3312 21.1502 55.5428 21.1502C54.6042 21.1502 53.8595 20.8999 53.3088 20.3993C52.7582 19.8987 52.4828 19.2354 52.4828 18.4094C52.4828 17.8837 52.5767 17.4332 52.7644 17.0577C52.9647 16.6698 53.2463 16.3569 53.6092 16.1191C53.9847 15.8688 54.4289 15.6873 54.9421 15.5747C55.4677 15.4495 56.0497 15.387 56.6879 15.387C56.9132 15.387 57.151 15.3995 57.4013 15.4245C57.6516 15.4495 57.9582 15.4746 58.3212 15.4996C58.3462 15.3744 58.3587 15.2493 58.3587 15.1241V14.7675C58.3587 14.2919 58.221 13.954 57.9457 13.7537C57.6704 13.541 57.2636 13.4346 56.7255 13.4346C56.0872 13.4346 55.5115 13.5159 54.9984 13.6786C54.4853 13.8413 54.0535 14.004 53.7031 14.1667L53.1211 12.2519ZM56.3312 19.1415C56.932 19.1415 57.3825 19.0351 57.6829 18.8224C57.9832 18.5971 58.2023 18.3593 58.3399 18.109V16.9826C58.2148 16.9576 58.027 16.9326 57.7767 16.9075C57.5264 16.87 57.2574 16.8512 56.9695 16.8512C56.7317 16.8512 56.4939 16.8763 56.2562 16.9263C56.0184 16.9639 55.8056 17.0327 55.6179 17.1328C55.4302 17.2204 55.28 17.3393 55.1673 17.4895C55.0547 17.6397 54.9984 17.8212 54.9984 18.0339C54.9984 18.3843 55.0985 18.6597 55.2987 18.8599C55.5115 19.0476 55.8557 19.1415 56.3312 19.1415ZM65.241 13.6786H63.3825V11.6136H65.241V9.47354L67.6814 8.77895V11.6136H72.5999V13.6786H67.6814V16.3631C67.6814 17.3268 67.8629 18.0277 68.2258 18.4657C68.5888 18.8912 69.0956 19.104 69.7464 19.104C70.0843 19.104 70.3909 19.0664 70.6663 18.9913C70.9416 18.9037 71.1857 18.7973 71.3984 18.6722C71.6237 18.547 71.8239 18.4094 71.9991 18.2592C72.1869 18.109 72.3558 17.9713 72.506 17.8462L73.6324 19.5357C73.4196 19.786 73.1505 20.0176 72.8251 20.2303C72.5123 20.4306 72.1681 20.612 71.7926 20.7747C71.4297 20.9249 71.048 21.0438 70.6475 21.1314C70.247 21.219 69.8528 21.2628 69.4648 21.2628C68.0631 21.2628 67.0056 20.8748 66.2922 20.0989C65.5914 19.3105 65.241 18.0652 65.241 16.3631V13.6786ZM75.3521 16.3068C75.3521 15.5184 75.471 14.8175 75.7088 14.2043C75.9466 13.591 76.2845 13.0717 76.7225 12.6461C77.1606 12.2206 77.6799 11.9015 78.2807 11.6887C78.8939 11.4635 79.576 11.3508 80.3269 11.3508C81.1154 11.3508 81.8162 11.4697 82.4294 11.7075C83.0552 11.9453 83.5808 12.2832 84.0064 12.7212C84.4319 13.1467 84.751 13.6661 84.9638 14.2794C85.189 14.8926 85.3017 15.5684 85.3017 16.3068C85.3017 17.0953 85.1828 17.7961 84.945 18.4094C84.7072 19.0226 84.3693 19.542 83.9313 19.9675C83.4932 20.393 82.9676 20.7184 82.3544 20.9437C81.7536 21.1564 81.0778 21.2628 80.3269 21.2628C79.5384 21.2628 78.8313 21.1439 78.2056 20.9061C77.5923 20.6683 77.073 20.3367 76.6474 19.9112C76.2219 19.4732 75.8965 18.9475 75.6713 18.3343C75.4585 17.721 75.3521 17.0452 75.3521 16.3068ZM77.8677 16.3068C77.8677 16.7198 77.924 17.1015 78.0366 17.452C78.1493 17.8024 78.312 18.109 78.5247 18.3718C78.7375 18.6346 78.994 18.8411 79.2944 18.9913C79.5948 19.129 79.9389 19.1978 80.3269 19.1978C81.0528 19.1978 81.641 18.9663 82.0915 18.5032C82.5546 18.0402 82.7861 17.308 82.7861 16.3068C82.7861 15.4433 82.5734 14.7487 82.1479 14.223C81.7223 13.6849 81.1154 13.4158 80.3269 13.4158C79.9765 13.4158 79.6511 13.4721 79.3507 13.5848C79.0504 13.6849 78.7875 13.8538 78.5623 14.0916C78.3495 14.3294 78.1805 14.6298 78.0554 14.9927C77.9302 15.3557 77.8677 15.7937 77.8677 16.3068ZM90.8511 21V15.2555C90.8511 14.8801 90.826 14.5797 90.776 14.3545C90.7259 14.1167 90.6571 13.9352 90.5695 13.81C90.4944 13.6724 90.3943 13.5848 90.2691 13.5472C90.1565 13.4972 90.0376 13.4721 89.9124 13.4721C89.6997 13.4721 89.4994 13.541 89.3117 13.6786C89.1365 13.8163 89.0176 13.9915 88.955 14.2043V21H86.7023V11.6136H88.4857L88.7485 12.6461H88.8048C88.9926 12.2832 89.2679 11.9891 89.6308 11.7638C89.9938 11.526 90.4193 11.4071 90.9074 11.4071C91.3204 11.4071 91.7146 11.5073 92.0901 11.7075C92.4655 11.9077 92.7221 12.2582 92.8597 12.7588C93.0475 12.3207 93.3353 11.9891 93.7233 11.7638C94.1113 11.526 94.5305 11.4071 94.9811 11.4071C95.319 11.4071 95.6193 11.4572 95.8822 11.5573C96.1575 11.6449 96.3953 11.8076 96.5955 12.0454C96.7958 12.2832 96.9459 12.6086 97.0461 13.0216C97.1587 13.4221 97.215 13.9415 97.215 14.5797V21H94.9623V14.9927C94.9623 14.4295 94.8684 14.0353 94.6807 13.81C94.5055 13.5848 94.2865 13.4721 94.0237 13.4721C93.7984 13.4721 93.6044 13.5285 93.4417 13.6411C93.279 13.7412 93.1664 13.9102 93.1038 14.148V21H90.8511Z" fill="#FBFBFD"/>
<path d="M30.7878 1.63895C30.181 0.132594 28.4568 -0.00293971 28.5115 1.9813C29.0739 5.49253 29.2918 9.529 28.0861 12.1787C27.1876 14.1531 29.5018 18.6004 29.5092 18.6243C33.5373 13.7353 32.4948 6.77518 30.7878 1.63895Z" fill="url(#paint0_linear_1633_20074)"/>
<path d="M30.7254 1.49574C30.5209 1.02254 30.0141 0.498694 29.3748 0.503852C30.3754 4.86064 30.9822 11.5497 28.8937 14.9652C27.7566 16.8247 29.5035 18.6012 29.5104 18.6251C33.4872 13.4982 32.4191 6.54052 30.7254 1.49574Z" fill="url(#paint1_linear_1633_20074)"/>
<path d="M4.51373 12.1787C3.30806 9.529 3.52642 5.49253 4.08834 1.9813C4.14256 -0.00293971 2.41884 0.132594 1.81206 1.63895C0.105095 6.77518 -0.93742 13.7353 3.09068 18.6243C3.09808 18.6004 5.41182 14.1531 4.51373 12.1787Z" fill="url(#paint2_linear_1633_20074)"/>
<path d="M3.70506 14.9656C1.61658 11.5505 2.20512 4.85823 3.20573 0.501436C2.62508 0.46767 2.0883 1.03607 1.87437 1.49285C0.103327 6.57749 -0.956933 13.6825 3.08793 18.6255C3.1037 18.6452 4.84221 16.8251 3.70506 14.9656Z" fill="url(#paint3_linear_1633_20074)"/>
<path d="M6.05999 13.0879C5.16781 10.4847 6.05999 6.33844 6.05999 6.33844C6.05999 6.33844 1.29251 9.7024 2.11864 16.8379C2.48833 20.0297 9.3295 21.394 9.3295 21.394C9.3295 21.394 7.12321 16.1907 6.05999 13.0879Z" fill="#CCE297"/>
<path d="M3.9858 14.8335C3.09363 12.2302 6.05999 6.33844 6.05999 6.33844C6.05999 6.33844 1.29251 9.7024 2.11864 16.8379C2.48833 20.0297 9.3295 21.394 9.3295 21.394C9.3295 21.394 5.04902 17.9362 3.9858 14.8335Z" fill="url(#paint4_linear_1633_20074)"/>
<path d="M26.5801 6.33843C26.5801 6.33843 27.4722 10.4847 26.5801 13.0879C25.5168 16.1902 23.3105 21.3935 23.3105 21.3935C23.3105 21.3935 30.1517 20.0293 30.5214 16.8374C31.347 9.7024 26.5801 6.33843 26.5801 6.33843Z" fill="#CCE297"/>
<path d="M26.5801 6.33843C26.5801 6.33843 29.5464 12.2302 28.6542 14.8335C27.591 17.9357 23.3105 21.3935 23.3105 21.3935C23.3105 21.3935 30.1517 20.0293 30.5214 16.8374C31.347 9.7024 26.5801 6.33843 26.5801 6.33843Z" fill="url(#paint5_linear_1633_20074)"/>
<path d="M25.4451 10.2402C25.2948 10.0835 26.2205 13.6656 24.7556 15.3243C21.1282 19.2173 18.1293 16.9953 16.2227 22.4584C16.1783 22.586 16.0034 20.8245 13.9819 19.2605C12.2942 17.9548 8.84279 17.007 7.60409 15.3243C6.16281 13.3673 7.09688 10.1529 7.00076 10.2402C5.62257 11.4876 3.89786 13.5333 4.33261 16.7857C4.90588 21.0745 8.94433 21.0238 10.9653 23.5244C14.3999 27.7738 13.0089 31.5336 16.2227 32.3805C17.1026 32.3149 18.1052 31.2498 18.636 29.6745C19.195 28.0144 19.5169 26.2004 21.1356 23.9343C22.9776 21.3558 25.3579 21.3676 26.8243 19.834C29.2421 17.3058 28.8192 13.7542 25.4451 10.2402Z" fill="url(#paint6_linear_1633_20074)"/>
<path d="M25.4435 10.2449C25.2833 10.0972 28.472 14.0727 25.9606 17.5455C23.8613 19.8753 21.8295 20.4254 19.6685 22.7117C17.5554 24.9473 17.7683 28.8398 16.3073 30.2561C16.2748 30.2875 15.6414 29.7201 15.2732 28.6982C14.5245 26.6187 14.1321 23.4447 11.9978 21.8099C10.3036 20.5122 7.22045 18.7484 6.13702 16.9714C4.16092 13.7313 7.09525 10.1581 6.99913 10.2449C5.62094 11.4924 3.634 13.637 4.06875 16.8894C4.64201 21.1781 8.94269 21.113 10.9636 23.6135C14.3983 27.8629 13.0073 31.6227 16.2211 32.4697C17.1009 32.404 18.1035 31.339 18.6344 29.7637C19.1934 28.1035 19.5152 26.2895 21.134 24.0234C22.976 21.445 25.3563 21.4567 26.8227 19.9232C29.2404 17.3944 29.3548 13.8518 25.4435 10.2449Z" fill="url(#paint7_linear_1633_20074)"/>
<defs>
<linearGradient id="paint0_linear_1633_20074" x1="26.2999" y1="17.4523" x2="32.1529" y2="1.42632" gradientUnits="userSpaceOnUse">
<stop offset="0.4525" stop-color="#2B4A9F"/>
<stop offset="1" stop-color="#44A474"/>
</linearGradient>
<linearGradient id="paint1_linear_1633_20074" x1="32.4718" y1="1.35352" x2="27.6087" y2="18.072" gradientUnits="userSpaceOnUse">
<stop stop-color="#7DAF72"/>
<stop offset="1" stop-color="#153641"/>
</linearGradient>
<linearGradient id="paint2_linear_1633_20074" x1="-0.420934" y1="17.3417" x2="5.44413" y2="1.28277" gradientUnits="userSpaceOnUse">
<stop offset="0.4246" stop-color="#2B4A9F"/>
<stop offset="1" stop-color="#44A474"/>
</linearGradient>
<linearGradient id="paint3_linear_1633_20074" x1="-1.36527" y1="7.28067" x2="6.96276" y2="11.9348" gradientUnits="userSpaceOnUse">
<stop stop-color="#70AC73"/>
<stop offset="1" stop-color="#153641"/>
</linearGradient>
<linearGradient id="paint4_linear_1633_20074" x1="1.99626" y1="9.35889" x2="10.3683" y2="20.6216" gradientUnits="userSpaceOnUse">
<stop offset="0.5196" stop-color="#3F976E"/>
<stop offset="0.6704" stop-color="#2A6356"/>
</linearGradient>
<linearGradient id="paint5_linear_1633_20074" x1="20.9095" y1="15.443" x2="30.1766" y2="11.7041" gradientUnits="userSpaceOnUse">
<stop offset="0.5475" stop-color="#2A6356"/>
<stop offset="0.8492" stop-color="#3F976E"/>
</linearGradient>
<linearGradient id="paint6_linear_1633_20074" x1="4.26411" y1="21.3083" x2="28.3593" y2="21.3083" gradientUnits="userSpaceOnUse">
<stop stop-color="#44A474"/>
<stop offset="0.9944" stop-color="#2B4A9F"/>
</linearGradient>
<linearGradient id="paint7_linear_1633_20074" x1="4.00758" y1="21.3555" x2="28.5304" y2="21.3555" gradientUnits="userSpaceOnUse">
<stop stop-color="#2B4A9F"/>
<stop offset="1" stop-color="#44A474"/>
</linearGradient>
</defs>
</svg>
